<svg xmlns="http://www.w3.org/2000/svg" xmlns:xlink="http://www.w3.org/1999/xlink" width="2000" zoomAndPan="magnify" viewBox="0 0 1500 1499.999933" height="2000" preserveAspectRatio="xMidYMid meet" version="1.0"><defs><g/><clipPath id="bb7aa222ad"><rect x="0" width="1343" y="0" height="378"/></clipPath></defs><rect x="-150" width="1800" fill="#ffffff" y="-149.999993" height="1799.99992" fill-opacity="1"/><rect x="-150" width="1800" fill="#1b1b1b" y="-149.999993" height="1799.99992" fill-opacity="1"/><g transform="matrix(1, 0, 0, 1, 73, 530)"><g clip-path="url(#bb7aa222ad)"><g fill="#ffffff" fill-opacity="1"><g transform="translate(459.950898, 296.249623)"><g><path d="M 91.96875 2.234375 C 81.0625 2.234375 72.628906 -0.242188 66.671875 -5.203125 C 60.722656 -10.160156 56.347656 -15.445312 53.546875 -21.0625 L 51.5625 -21.0625 L 51.5625 51.8125 L 12.640625 51.8125 L 12.640625 -131.125 L 51.5625 -131.125 L 51.5625 -111.796875 L 53.546875 -111.796875 C 55.859375 -116.753906 60.03125 -121.671875 66.0625 -126.546875 C 72.09375 -131.421875 80.644531 -133.859375 91.71875 -133.859375 C 108.070312 -133.859375 120.671875 -127.742188 129.515625 -115.515625 C 138.359375 -103.285156 142.78125 -86.675781 142.78125 -65.6875 C 142.78125 -45.03125 138.359375 -28.546875 129.515625 -16.234375 C 120.671875 -3.921875 108.15625 2.234375 91.96875 2.234375 Z M 77.578125 -28.25 C 86.503906 -28.25 93.070312 -31.96875 97.28125 -39.40625 C 101.5 -46.84375 103.609375 -55.601562 103.609375 -65.6875 C 103.609375 -75.769531 101.5 -84.40625 97.28125 -91.59375 C 93.070312 -98.78125 86.503906 -102.375 77.578125 -102.375 C 68.660156 -102.375 62.09375 -98.738281 57.875 -91.46875 C 53.664062 -84.195312 51.5625 -75.601562 51.5625 -65.6875 C 51.5625 -55.601562 53.707031 -46.84375 58 -39.40625 C 62.300781 -31.96875 68.828125 -28.25 77.578125 -28.25 Z M 77.578125 -28.25 "/></g></g></g><g fill="#ffffff" fill-opacity="1"><g transform="translate(593.791251, 296.249623)"><g><path d="M 58.75 2.234375 C 42.550781 2.234375 30.03125 -3.921875 21.1875 -16.234375 C 12.351562 -28.546875 7.9375 -45.03125 7.9375 -65.6875 C 7.9375 -86.507812 12.476562 -103.078125 21.5625 -115.390625 C 30.65625 -127.703125 43.210938 -133.859375 59.234375 -133.859375 C 70.304688 -133.859375 78.816406 -131.421875 84.765625 -126.546875 C 90.722656 -121.671875 94.859375 -116.753906 97.171875 -111.796875 L 99.15625 -111.796875 L 99.15625 -131.125 L 138.0625 -131.125 L 138.0625 0 L 99.15625 0 L 99.15625 -21.0625 L 97.171875 -21.0625 C 94.691406 -15.78125 90.4375 -10.578125 84.40625 -5.453125 C 78.375 -0.328125 69.820312 2.234375 58.75 2.234375 Z M 73.375 -28.75 C 82.132812 -28.75 88.660156 -32.425781 92.953125 -39.78125 C 97.242188 -47.132812 99.390625 -55.851562 99.390625 -65.9375 C 99.390625 -75.851562 97.242188 -84.488281 92.953125 -91.84375 C 88.660156 -99.195312 82.132812 -102.875 73.375 -102.875 C 64.28125 -102.875 57.625 -99.273438 53.40625 -92.078125 C 49.195312 -84.890625 47.09375 -76.257812 47.09375 -66.1875 C 47.09375 -55.9375 49.195312 -47.132812 53.40625 -39.78125 C 57.625 -32.425781 64.28125 -28.75 73.375 -28.75 Z M 73.375 -28.75 "/></g></g></g><g fill="#ffffff" fill-opacity="1"><g transform="translate(726.640182, 296.249623)"><g><path d="M 14.125 -131.125 L 52.546875 -131.125 L 52.546875 -110.296875 L 54.53125 -110.296875 C 56.507812 -116.085938 60.429688 -121.003906 66.296875 -125.046875 C 72.171875 -129.097656 79.816406 -131.125 89.234375 -131.125 C 92.046875 -131.125 94.691406 -130.875 97.171875 -130.375 L 95.4375 -94.9375 C 91.632812 -96.257812 87.253906 -96.921875 82.296875 -96.921875 C 71.878906 -96.921875 64.316406 -94.273438 59.609375 -88.984375 C 54.898438 -83.703125 52.546875 -74.945312 52.546875 -62.71875 L 52.546875 0 L 14.125 0 Z M 14.125 -131.125 "/></g></g></g><g fill="#ffffff" fill-opacity="1"><g transform="translate(805.704598, 296.249623)"><g><path d="M 66.1875 -101.140625 L 66.1875 -48.578125 C 66.1875 -42.796875 66.472656 -38.539062 67.046875 -35.8125 C 67.628906 -33.09375 69.28125 -30.90625 72 -29.25 C 74.726562 -27.59375 79.148438 -26.765625 85.265625 -26.765625 C 88.410156 -26.765625 91.632812 -27.097656 94.9375 -27.765625 L 94.9375 -0.984375 C 93.28125 -0.660156 89.972656 -0.289062 85.015625 0.125 C 80.054688 0.539062 75.101562 0.75 70.15625 0.75 C 57.257812 0.75 47.710938 -1.148438 41.515625 -4.953125 C 35.316406 -8.753906 31.472656 -13.378906 29.984375 -18.828125 C 28.503906 -24.285156 27.765625 -31.394531 27.765625 -40.15625 L 27.765625 -101.140625 L 6.6875 -101.140625 L 6.6875 -131.125 L 27.765625 -131.125 L 27.765625 -173.515625 L 66.1875 -173.515625 L 66.1875 -131.125 L 94.9375 -131.125 L 94.9375 -101.140625 Z M 66.1875 -101.140625 "/></g></g></g><g fill="#ffffff" fill-opacity="1"><g transform="translate(892.948279, 296.249623)"><g><path d="M 12.890625 -131.125 L 51.5625 -131.125 L 51.5625 -112.046875 L 53.546875 -112.046875 C 56.347656 -118.148438 60.929688 -123.3125 67.296875 -127.53125 C 73.660156 -131.75 81.382812 -133.859375 90.46875 -133.859375 C 107.65625 -133.859375 119.550781 -128.441406 126.15625 -117.609375 C 132.769531 -106.785156 136.078125 -94.679688 136.078125 -81.296875 L 136.078125 0 L 97.421875 0 L 97.421875 -74.609375 C 97.421875 -83.203125 95.519531 -89.976562 91.71875 -94.9375 C 87.914062 -99.894531 82.296875 -102.375 74.859375 -102.375 C 66.921875 -102.375 61.050781 -99.769531 57.25 -94.5625 C 53.457031 -89.351562 51.5625 -82.703125 51.5625 -74.609375 L 51.5625 0 L 12.890625 0 Z M 12.890625 -131.125 "/></g></g></g><g fill="#ffffff" fill-opacity="1"><g transform="translate(1021.583653, 296.249623)"><g><path d="M 72.125 2.234375 C 58.25 2.234375 46.554688 -0.945312 37.046875 -7.3125 C 27.546875 -13.675781 20.523438 -22.019531 15.984375 -32.34375 C 11.441406 -42.675781 9.171875 -53.789062 9.171875 -65.6875 C 9.171875 -77.582031 11.441406 -88.691406 15.984375 -99.015625 C 20.523438 -109.347656 27.546875 -117.738281 37.046875 -124.1875 C 46.554688 -130.632812 58.414062 -133.859375 72.625 -133.859375 C 91.132812 -133.859375 105.84375 -128.03125 116.75 -116.375 C 127.65625 -104.726562 133.109375 -87.832031 133.109375 -65.6875 L 133.109375 -55.03125 L 46.359375 -55.03125 L 46.359375 -53.046875 C 46.359375 -46.265625 48.710938 -40.4375 53.421875 -35.5625 C 58.128906 -30.6875 64.117188 -28.25 71.390625 -28.25 C 77.003906 -28.25 81.796875 -29.53125 85.765625 -32.09375 C 89.734375 -34.65625 92.539062 -38.085938 94.1875 -42.390625 L 132.125 -42.390625 C 128.8125 -29.328125 121.988281 -18.625 111.65625 -10.28125 C 101.332031 -1.9375 88.15625 2.234375 72.125 2.234375 Z M 96.171875 -79.8125 C 96.003906 -88.738281 93.734375 -95.347656 89.359375 -99.640625 C 84.984375 -103.941406 79.160156 -106.09375 71.890625 -106.09375 C 64.453125 -106.09375 58.539062 -103.773438 54.15625 -99.140625 C 49.78125 -94.515625 47.507812 -88.070312 47.34375 -79.8125 Z M 96.171875 -79.8125 "/></g></g></g><g fill="#ffffff" fill-opacity="1"><g transform="translate(1144.022714, 296.249623)"><g><path d="M 14.125 -131.125 L 52.546875 -131.125 L 52.546875 -110.296875 L 54.53125 -110.296875 C 56.507812 -116.085938 60.429688 -121.003906 66.296875 -125.046875 C 72.171875 -129.097656 79.816406 -131.125 89.234375 -131.125 C 92.046875 -131.125 94.691406 -130.875 97.171875 -130.375 L 95.4375 -94.9375 C 91.632812 -96.257812 87.253906 -96.921875 82.296875 -96.921875 C 71.878906 -96.921875 64.316406 -94.273438 59.609375 -88.984375 C 54.898438 -83.703125 52.546875 -74.945312 52.546875 -62.71875 L 52.546875 0 L 14.125 0 Z M 14.125 -131.125 "/></g></g></g><g fill="#ffffff" fill-opacity="1"><g transform="translate(1225.070083, 296.249623)"><g><path d="M 62.46875 2.234375 C 51.394531 2.234375 41.804688 0.171875 33.703125 -3.953125 C 25.609375 -8.085938 19.453125 -13.5 15.234375 -20.1875 C 11.023438 -26.882812 8.921875 -33.953125 8.921875 -41.390625 L 8.921875 -43.125 L 46.359375 -43.125 L 46.359375 -41.640625 C 46.359375 -37.835938 47.84375 -34.488281 50.8125 -31.59375 C 53.789062 -28.707031 58.003906 -27.265625 63.453125 -27.265625 C 68.078125 -27.265625 71.796875 -28.378906 74.609375 -30.609375 C 77.421875 -32.835938 78.828125 -35.769531 78.828125 -39.40625 C 78.828125 -42.71875 77.503906 -45.363281 74.859375 -47.34375 C 72.210938 -49.320312 68.90625 -50.644531 64.9375 -51.3125 L 50.8125 -54.28125 C 41.226562 -55.9375 32.382812 -59.78125 24.28125 -65.8125 C 16.1875 -71.84375 12.140625 -81.140625 12.140625 -93.703125 C 12.140625 -106.421875 16.722656 -116.289062 25.890625 -123.3125 C 35.066406 -130.34375 46.84375 -133.859375 61.21875 -133.859375 C 71.96875 -133.859375 81.222656 -131.957031 88.984375 -128.15625 C 96.753906 -124.351562 102.617188 -119.351562 106.578125 -113.15625 C 110.546875 -106.957031 112.53125 -100.390625 112.53125 -93.453125 L 112.53125 -92.203125 L 75.109375 -92.203125 L 75.109375 -92.953125 C 75.109375 -96.253906 73.867188 -99.3125 71.390625 -102.125 C 68.910156 -104.9375 65.109375 -106.34375 59.984375 -106.34375 C 55.691406 -106.34375 52.265625 -105.304688 49.703125 -103.234375 C 47.140625 -101.171875 45.859375 -98.320312 45.859375 -94.6875 C 45.859375 -88.238281 51.226562 -84.023438 61.96875 -82.046875 L 77.34375 -78.578125 C 87.75 -76.265625 96.546875 -72.050781 103.734375 -65.9375 C 110.921875 -59.820312 114.515625 -51.144531 114.515625 -39.90625 C 114.515625 -31.3125 112.242188 -23.832031 107.703125 -17.46875 C 103.160156 -11.113281 96.921875 -6.238281 88.984375 -2.84375 C 81.054688 0.539062 72.21875 2.234375 62.46875 2.234375 Z M 62.46875 2.234375 "/></g></g></g><g fill="#fa6f45" fill-opacity="1"><g transform="translate(1.375524, 296.284226)"><g><path d="M 60.625 -130.703125 L 43.1875 -56.625 C 46.613281 -65.019531 51.519531 -75.03125 57.90625 -86.65625 C 64.300781 -98.289062 71.117188 -108.539062 78.359375 -117.40625 C 85.609375 -126.269531 92.1875 -130.703125 98.09375 -130.703125 C 100.570312 -130.703125 102.765625 -129.84375 104.671875 -128.125 C 106.578125 -126.40625 107.53125 -123.832031 107.53125 -120.40625 C 107.53125 -115.0625 106.429688 -109.625 104.234375 -104.09375 C 102.046875 -98.570312 98.378906 -95.8125 93.234375 -95.8125 C 90.566406 -95.8125 88.753906 -96.476562 87.796875 -97.8125 C 86.847656 -99.144531 86.085938 -101.144531 85.515625 -103.8125 C 85.128906 -105.71875 84.695312 -107.097656 84.21875 -107.953125 C 83.75 -108.816406 82.847656 -109.25 81.515625 -109.25 C 78.265625 -109.25 73.6875 -104.097656 67.78125 -93.796875 C 61.875 -83.503906 56.054688 -71.6875 50.328125 -58.34375 C 44.609375 -45 40.796875 -34.988281 38.890625 -28.3125 L 30.890625 0 L 9.71875 0 L 32.3125 -92.375 C 32.507812 -92.945312 33.082031 -95.28125 34.03125 -99.375 C 34.988281 -103.476562 35.46875 -107.148438 35.46875 -110.390625 C 35.46875 -113.441406 34.609375 -115.441406 32.890625 -116.390625 C 31.171875 -117.347656 28.882812 -117.828125 26.03125 -117.828125 C 23.925781 -117.828125 22.0625 -117.734375 20.4375 -117.546875 C 18.820312 -117.359375 17.539062 -117.164062 16.59375 -116.96875 L 18.015625 -122.40625 L 55.765625 -130.703125 Z M 60.625 -130.703125 "/></g></g></g><g fill="#fa6f45" fill-opacity="1"><g transform="translate(83.17013, 296.284226)"><g><path d="M 88.953125 -130.703125 C 94.097656 -130.703125 98.765625 -128.9375 102.953125 -125.40625 C 107.148438 -121.882812 109.726562 -116.976562 110.6875 -110.6875 L 111.25 -110.6875 L 115.828125 -127.5625 L 138.421875 -130.703125 L 108.96875 -27.453125 C 108.78125 -27.078125 108.300781 -25.648438 107.53125 -23.171875 C 106.769531 -20.691406 106.390625 -18.210938 106.390625 -15.734375 C 106.390625 -14.203125 106.769531 -13.007812 107.53125 -12.15625 C 108.300781 -11.300781 109.160156 -10.875 110.109375 -10.875 C 112.585938 -10.875 115.734375 -12.585938 119.546875 -16.015625 C 123.359375 -19.441406 126.984375 -24.207031 130.421875 -30.3125 L 134.703125 -27.453125 C 129.554688 -17.921875 123.023438 -10.390625 115.109375 -4.859375 C 107.203125 0.671875 100.195312 3.4375 94.09375 3.4375 C 90.664062 3.4375 88.09375 2.195312 86.375 -0.28125 C 84.65625 -2.757812 83.796875 -5.8125 83.796875 -9.4375 C 83.796875 -11.914062 84.316406 -15.96875 85.359375 -21.59375 C 86.410156 -27.21875 88.082031 -32.890625 90.375 -38.609375 L 89.796875 -39.1875 C 68.441406 -10.769531 49.09375 3.4375 31.75 3.4375 C 24.125 3.4375 18.066406 0.148438 13.578125 -6.421875 C 9.097656 -13.003906 6.859375 -20.585938 6.859375 -29.171875 C 6.859375 -44.046875 11.195312 -59.441406 19.875 -75.359375 C 28.550781 -91.273438 39.320312 -104.476562 52.1875 -114.96875 C 65.0625 -125.457031 77.316406 -130.703125 88.953125 -130.703125 Z M 29.75 -34.609375 C 29.75 -27.171875 31.460938 -21.734375 34.890625 -18.296875 C 38.328125 -14.867188 42.332031 -13.15625 46.90625 -13.15625 C 52.8125 -13.15625 59.195312 -15.820312 66.0625 -21.15625 C 72.925781 -26.5 79.265625 -33.316406 85.078125 -41.609375 C 90.898438 -49.898438 95.238281 -58.335938 98.09375 -66.921875 C 100.957031 -75.316406 103.054688 -82.226562 104.390625 -87.65625 C 105.722656 -93.09375 106.390625 -98.382812 106.390625 -103.53125 C 106.390625 -110.96875 104.671875 -116.445312 101.234375 -119.96875 C 97.804688 -123.5 93.804688 -125.265625 89.234375 -125.265625 C 80.273438 -125.265625 71.171875 -119.78125 61.921875 -108.8125 C 52.671875 -97.851562 44.992188 -85.03125 38.890625 -70.34375 C 32.796875 -55.664062 29.75 -43.753906 29.75 -34.609375 Z M 29.75 -34.609375 "/></g></g></g><g fill="#fa6f45" fill-opacity="1"><g transform="translate(206.148051, 296.284226)"><g><path d="M 84.078125 -205.0625 L 43.765625 -64.640625 L 44.328125 -64.0625 C 56.910156 -84.65625 69.300781 -100.910156 81.5 -112.828125 C 93.707031 -124.742188 104.863281 -130.703125 114.96875 -130.703125 C 118.59375 -130.703125 122.070312 -129.128906 125.40625 -125.984375 C 128.75 -122.835938 130.421875 -118.691406 130.421875 -113.546875 C 130.421875 -107.441406 129.082031 -99.71875 126.40625 -90.375 L 109.53125 -32.3125 C 108.195312 -27.925781 107.242188 -24.492188 106.671875 -22.015625 C 106.097656 -19.535156 105.8125 -17.441406 105.8125 -15.734375 C 105.8125 -14.015625 106.144531 -12.773438 106.8125 -12.015625 C 107.488281 -11.253906 108.207031 -10.875 108.96875 -10.875 C 111.0625 -10.875 114.347656 -13.207031 118.828125 -17.875 C 123.304688 -22.539062 126.976562 -26.878906 129.84375 -30.890625 L 134.140625 -27.734375 C 129.179688 -20.304688 122.882812 -13.253906 115.25 -6.578125 C 107.625 0.0976562 100.664062 3.4375 94.375 3.4375 C 90.945312 3.4375 88.226562 2.195312 86.21875 -0.28125 C 84.21875 -2.757812 83.21875 -5.617188 83.21875 -8.859375 C 83.21875 -13.242188 84.269531 -18.867188 86.375 -25.734375 L 103.53125 -85.796875 C 106.394531 -95.140625 107.828125 -101.625 107.828125 -105.25 C 107.828125 -108.101562 107.109375 -110.390625 105.671875 -112.109375 C 104.242188 -113.828125 102.484375 -114.6875 100.390625 -114.6875 C 94.472656 -114.6875 86.984375 -110.0625 77.921875 -100.8125 C 68.867188 -91.5625 59.390625 -79.21875 49.484375 -63.78125 C 42.992188 -53.289062 37.9375 -41.945312 34.3125 -29.75 L 25.453125 0 L 4 0 L 48.625 -155.296875 C 51.289062 -164.253906 53.195312 -170.925781 54.34375 -175.3125 C 55.488281 -179.695312 56.0625 -183.035156 56.0625 -185.328125 C 56.0625 -188.753906 54.820312 -190.894531 52.34375 -191.75 C 49.863281 -192.613281 45.765625 -193.046875 40.046875 -193.046875 L 40.046875 -198.203125 L 79.21875 -205.0625 Z M 84.078125 -205.0625 "/></g></g></g><g fill="#fa6f45" fill-opacity="1"><g transform="translate(329.125973, 296.284226)"><g><path d="M 88.953125 -130.703125 C 94.097656 -130.703125 98.765625 -128.9375 102.953125 -125.40625 C 107.148438 -121.882812 109.726562 -116.976562 110.6875 -110.6875 L 111.25 -110.6875 L 115.828125 -127.5625 L 138.421875 -130.703125 L 108.96875 -27.453125 C 108.78125 -27.078125 108.300781 -25.648438 107.53125 -23.171875 C 106.769531 -20.691406 106.390625 -18.210938 106.390625 -15.734375 C 106.390625 -14.203125 106.769531 -13.007812 107.53125 -12.15625 C 108.300781 -11.300781 109.160156 -10.875 110.109375 -10.875 C 112.585938 -10.875 115.734375 -12.585938 119.546875 -16.015625 C 123.359375 -19.441406 126.984375 -24.207031 130.421875 -30.3125 L 134.703125 -27.453125 C 129.554688 -17.921875 123.023438 -10.390625 115.109375 -4.859375 C 107.203125 0.671875 100.195312 3.4375 94.09375 3.4375 C 90.664062 3.4375 88.09375 2.195312 86.375 -0.28125 C 84.65625 -2.757812 83.796875 -5.8125 83.796875 -9.4375 C 83.796875 -11.914062 84.316406 -15.96875 85.359375 -21.59375 C 86.410156 -27.21875 88.082031 -32.890625 90.375 -38.609375 L 89.796875 -39.1875 C 68.441406 -10.769531 49.09375 3.4375 31.75 3.4375 C 24.125 3.4375 18.066406 0.148438 13.578125 -6.421875 C 9.097656 -13.003906 6.859375 -20.585938 6.859375 -29.171875 C 6.859375 -44.046875 11.195312 -59.441406 19.875 -75.359375 C 28.550781 -91.273438 39.320312 -104.476562 52.1875 -114.96875 C 65.0625 -125.457031 77.316406 -130.703125 88.953125 -130.703125 Z M 29.75 -34.609375 C 29.75 -27.171875 31.460938 -21.734375 34.890625 -18.296875 C 38.328125 -14.867188 42.332031 -13.15625 46.90625 -13.15625 C 52.8125 -13.15625 59.195312 -15.820312 66.0625 -21.15625 C 72.925781 -26.5 79.265625 -33.316406 85.078125 -41.609375 C 90.898438 -49.898438 95.238281 -58.335938 98.09375 -66.921875 C 100.957031 -75.316406 103.054688 -82.226562 104.390625 -87.65625 C 105.722656 -93.09375 106.390625 -98.382812 106.390625 -103.53125 C 106.390625 -110.96875 104.671875 -116.445312 101.234375 -119.96875 C 97.804688 -123.5 93.804688 -125.265625 89.234375 -125.265625 C 80.273438 -125.265625 71.171875 -119.78125 61.921875 -108.8125 C 52.671875 -97.851562 44.992188 -85.03125 38.890625 -70.34375 C 32.796875 -55.664062 29.75 -43.753906 29.75 -34.609375 Z M 29.75 -34.609375 "/></g></g></g></g></g></svg>