<svg xmlns="http://www.w3.org/2000/svg" xmlns:xlink="http://www.w3.org/1999/xlink" width="200" zoomAndPan="magnify" viewBox="0 0 150 37.5" height="50" preserveAspectRatio="xMidYMid meet" version="1.0"><defs><g/><clipPath id="8bc9209ab1"><path d="M 30 4 L 33.460938 4 L 33.460938 8 L 30 8 Z M 30 4 " clip-rule="nonzero"/></clipPath><clipPath id="34c04d156b"><path d="M 0.300781 4 L 3 4 L 3 8 L 0.300781 8 Z M 0.300781 4 " clip-rule="nonzero"/></clipPath><clipPath id="c24b184f45"><rect x="0" width="34" y="0" height="10"/></clipPath></defs><g transform="matrix(1, 0, 0, 1, 58, 13)"><g clip-path="url(#c24b184f45)"><g fill="#ffffff" fill-opacity="1"><g transform="translate(11.645167, 7.38445)"><g><path d="M 2.265625 0.0625 C 1.992188 0.0625 1.785156 0 1.640625 -0.125 C 1.492188 -0.25 1.382812 -0.378906 1.3125 -0.515625 L 1.265625 -0.515625 L 1.265625 1.28125 L 0.3125 1.28125 L 0.3125 -3.234375 L 1.265625 -3.234375 L 1.265625 -2.75 L 1.3125 -2.75 C 1.375 -2.875 1.476562 -2.992188 1.625 -3.109375 C 1.769531 -3.234375 1.984375 -3.296875 2.265625 -3.296875 C 2.660156 -3.296875 2.96875 -3.144531 3.1875 -2.84375 C 3.40625 -2.539062 3.515625 -2.132812 3.515625 -1.625 C 3.515625 -1.113281 3.40625 -0.703125 3.1875 -0.390625 C 2.96875 -0.0859375 2.660156 0.0625 2.265625 0.0625 Z M 1.90625 -0.703125 C 2.125 -0.703125 2.285156 -0.789062 2.390625 -0.96875 C 2.492188 -1.15625 2.546875 -1.375 2.546875 -1.625 C 2.546875 -1.863281 2.492188 -2.070312 2.390625 -2.25 C 2.285156 -2.425781 2.125 -2.515625 1.90625 -2.515625 C 1.6875 -2.515625 1.523438 -2.425781 1.421875 -2.25 C 1.316406 -2.070312 1.265625 -1.863281 1.265625 -1.625 C 1.265625 -1.375 1.316406 -1.15625 1.421875 -0.96875 C 1.535156 -0.789062 1.695312 -0.703125 1.90625 -0.703125 Z M 1.90625 -0.703125 "/></g></g></g><g fill="#ffffff" fill-opacity="1"><g transform="translate(14.94715, 7.38445)"><g><path d="M 1.453125 0.0625 C 1.046875 0.0625 0.734375 -0.0859375 0.515625 -0.390625 C 0.304688 -0.703125 0.203125 -1.113281 0.203125 -1.625 C 0.203125 -2.132812 0.3125 -2.539062 0.53125 -2.84375 C 0.757812 -3.144531 1.066406 -3.296875 1.453125 -3.296875 C 1.734375 -3.296875 1.945312 -3.234375 2.09375 -3.109375 C 2.238281 -2.992188 2.335938 -2.875 2.390625 -2.75 L 2.4375 -2.75 L 2.4375 -3.234375 L 3.40625 -3.234375 L 3.40625 0 L 2.4375 0 L 2.4375 -0.515625 L 2.390625 -0.515625 C 2.328125 -0.390625 2.222656 -0.257812 2.078125 -0.125 C 1.929688 0 1.722656 0.0625 1.453125 0.0625 Z M 1.8125 -0.703125 C 2.019531 -0.703125 2.175781 -0.789062 2.28125 -0.96875 C 2.394531 -1.15625 2.453125 -1.375 2.453125 -1.625 C 2.453125 -1.863281 2.394531 -2.070312 2.28125 -2.25 C 2.175781 -2.4375 2.019531 -2.53125 1.8125 -2.53125 C 1.582031 -2.53125 1.414062 -2.441406 1.3125 -2.265625 C 1.207031 -2.085938 1.15625 -1.875 1.15625 -1.625 C 1.15625 -1.375 1.207031 -1.15625 1.3125 -0.96875 C 1.414062 -0.789062 1.582031 -0.703125 1.8125 -0.703125 Z M 1.8125 -0.703125 "/></g></g></g><g fill="#ffffff" fill-opacity="1"><g transform="translate(18.224672, 7.38445)"><g><path d="M 0.34375 -3.234375 L 1.296875 -3.234375 L 1.296875 -2.71875 L 1.34375 -2.71875 C 1.394531 -2.863281 1.488281 -2.984375 1.625 -3.078125 C 1.769531 -3.179688 1.960938 -3.234375 2.203125 -3.234375 C 2.265625 -3.234375 2.328125 -3.226562 2.390625 -3.21875 L 2.359375 -2.34375 C 2.265625 -2.375 2.15625 -2.390625 2.03125 -2.390625 C 1.769531 -2.390625 1.582031 -2.320312 1.46875 -2.1875 C 1.351562 -2.0625 1.296875 -1.847656 1.296875 -1.546875 L 1.296875 0 L 0.34375 0 Z M 0.34375 -3.234375 "/></g></g></g><g fill="#ffffff" fill-opacity="1"><g transform="translate(20.175275, 7.38445)"><g><path d="M 1.625 -2.5 L 1.625 -1.203125 C 1.625 -1.054688 1.628906 -0.945312 1.640625 -0.875 C 1.660156 -0.8125 1.703125 -0.757812 1.765625 -0.71875 C 1.835938 -0.675781 1.953125 -0.65625 2.109375 -0.65625 C 2.179688 -0.65625 2.257812 -0.664062 2.34375 -0.6875 L 2.34375 -0.03125 C 2.300781 -0.0195312 2.21875 -0.0078125 2.09375 0 C 1.96875 0.0078125 1.847656 0.015625 1.734375 0.015625 C 1.410156 0.015625 1.171875 -0.03125 1.015625 -0.125 C 0.867188 -0.21875 0.773438 -0.332031 0.734375 -0.46875 C 0.703125 -0.601562 0.6875 -0.773438 0.6875 -0.984375 L 0.6875 -2.5 L 0.171875 -2.5 L 0.171875 -3.234375 L 0.6875 -3.234375 L 0.6875 -4.28125 L 1.625 -4.28125 L 1.625 -3.234375 L 2.34375 -3.234375 L 2.34375 -2.5 Z M 1.625 -2.5 "/></g></g></g><g fill="#ffffff" fill-opacity="1"><g transform="translate(22.327668, 7.38445)"><g><path d="M 0.3125 -3.234375 L 1.265625 -3.234375 L 1.265625 -2.765625 L 1.3125 -2.765625 C 1.382812 -2.910156 1.5 -3.035156 1.65625 -3.140625 C 1.8125 -3.242188 2.003906 -3.296875 2.234375 -3.296875 C 2.648438 -3.296875 2.941406 -3.160156 3.109375 -2.890625 C 3.273438 -2.628906 3.359375 -2.332031 3.359375 -2 L 3.359375 0 L 2.40625 0 L 2.40625 -1.84375 C 2.40625 -2.050781 2.359375 -2.210938 2.265625 -2.328125 C 2.171875 -2.453125 2.03125 -2.515625 1.84375 -2.515625 C 1.644531 -2.515625 1.5 -2.453125 1.40625 -2.328125 C 1.3125 -2.203125 1.265625 -2.039062 1.265625 -1.84375 L 1.265625 0 L 0.3125 0 Z M 0.3125 -3.234375 "/></g></g></g><g fill="#ffffff" fill-opacity="1"><g transform="translate(25.501238, 7.38445)"><g><path d="M 1.78125 0.0625 C 1.4375 0.0625 1.144531 -0.015625 0.90625 -0.171875 C 0.675781 -0.335938 0.503906 -0.546875 0.390625 -0.796875 C 0.273438 -1.046875 0.21875 -1.320312 0.21875 -1.625 C 0.21875 -1.914062 0.273438 -2.1875 0.390625 -2.4375 C 0.503906 -2.695312 0.675781 -2.90625 0.90625 -3.0625 C 1.144531 -3.21875 1.441406 -3.296875 1.796875 -3.296875 C 2.242188 -3.296875 2.601562 -3.148438 2.875 -2.859375 C 3.144531 -2.578125 3.28125 -2.164062 3.28125 -1.625 L 3.28125 -1.359375 L 1.140625 -1.359375 L 1.140625 -1.3125 C 1.140625 -1.144531 1.195312 -1 1.3125 -0.875 C 1.425781 -0.757812 1.578125 -0.703125 1.765625 -0.703125 C 1.898438 -0.703125 2.015625 -0.734375 2.109375 -0.796875 C 2.210938 -0.859375 2.285156 -0.941406 2.328125 -1.046875 L 3.25 -1.046875 C 3.175781 -0.722656 3.007812 -0.457031 2.75 -0.25 C 2.5 -0.0390625 2.175781 0.0625 1.78125 0.0625 Z M 2.375 -1.96875 C 2.363281 -2.1875 2.304688 -2.347656 2.203125 -2.453125 C 2.097656 -2.554688 1.953125 -2.609375 1.765625 -2.609375 C 1.585938 -2.609375 1.441406 -2.550781 1.328125 -2.4375 C 1.222656 -2.320312 1.171875 -2.164062 1.171875 -1.96875 Z M 2.375 -1.96875 "/></g></g></g><g fill="#ffffff" fill-opacity="1"><g transform="translate(28.521938, 7.38445)"><g><path d="M 0.34375 -3.234375 L 1.296875 -3.234375 L 1.296875 -2.71875 L 1.34375 -2.71875 C 1.394531 -2.863281 1.488281 -2.984375 1.625 -3.078125 C 1.769531 -3.179688 1.960938 -3.234375 2.203125 -3.234375 C 2.265625 -3.234375 2.328125 -3.226562 2.390625 -3.21875 L 2.359375 -2.34375 C 2.265625 -2.375 2.15625 -2.390625 2.03125 -2.390625 C 1.769531 -2.390625 1.582031 -2.320312 1.46875 -2.1875 C 1.351562 -2.0625 1.296875 -1.847656 1.296875 -1.546875 L 1.296875 0 L 0.34375 0 Z M 0.34375 -3.234375 "/></g></g></g><g clip-path="url(#8bc9209ab1)"><g fill="#ffffff" fill-opacity="1"><g transform="translate(30.521462, 7.38445)"><g><path d="M 1.546875 0.0625 C 1.265625 0.0625 1.023438 0.0078125 0.828125 -0.09375 C 0.628906 -0.195312 0.476562 -0.332031 0.375 -0.5 C 0.269531 -0.664062 0.21875 -0.835938 0.21875 -1.015625 L 0.21875 -1.0625 L 1.140625 -1.0625 L 1.140625 -1.03125 C 1.140625 -0.9375 1.175781 -0.851562 1.25 -0.78125 C 1.320312 -0.707031 1.425781 -0.671875 1.5625 -0.671875 C 1.675781 -0.671875 1.765625 -0.695312 1.828125 -0.75 C 1.898438 -0.8125 1.9375 -0.882812 1.9375 -0.96875 C 1.9375 -1.050781 1.90625 -1.113281 1.84375 -1.15625 C 1.78125 -1.207031 1.695312 -1.242188 1.59375 -1.265625 L 1.25 -1.34375 C 1.007812 -1.382812 0.789062 -1.476562 0.59375 -1.625 C 0.394531 -1.769531 0.296875 -2 0.296875 -2.3125 C 0.296875 -2.625 0.410156 -2.863281 0.640625 -3.03125 C 0.867188 -3.207031 1.160156 -3.296875 1.515625 -3.296875 C 1.773438 -3.296875 2 -3.25 2.1875 -3.15625 C 2.382812 -3.0625 2.53125 -2.9375 2.625 -2.78125 C 2.726562 -2.632812 2.78125 -2.472656 2.78125 -2.296875 L 2.78125 -2.265625 L 1.84375 -2.265625 L 1.84375 -2.296875 C 1.84375 -2.367188 1.8125 -2.441406 1.75 -2.515625 C 1.695312 -2.585938 1.609375 -2.625 1.484375 -2.625 C 1.367188 -2.625 1.28125 -2.597656 1.21875 -2.546875 C 1.15625 -2.492188 1.125 -2.421875 1.125 -2.328125 C 1.125 -2.171875 1.257812 -2.066406 1.53125 -2.015625 L 1.90625 -1.9375 C 2.164062 -1.875 2.382812 -1.769531 2.5625 -1.625 C 2.738281 -1.476562 2.828125 -1.265625 2.828125 -0.984375 C 2.828125 -0.773438 2.769531 -0.59375 2.65625 -0.4375 C 2.539062 -0.28125 2.382812 -0.15625 2.1875 -0.0625 C 2 0.0195312 1.785156 0.0625 1.546875 0.0625 Z M 1.546875 0.0625 "/></g></g></g></g><g clip-path="url(#34c04d156b)"><g fill="#fa6f45" fill-opacity="1"><g transform="translate(0.331625, 7.385304)"><g><path d="M 1.5 -3.234375 L 1.0625 -1.390625 C 1.144531 -1.597656 1.265625 -1.847656 1.421875 -2.140625 C 1.585938 -2.429688 1.757812 -2.6875 1.9375 -2.90625 C 2.113281 -3.125 2.273438 -3.234375 2.421875 -3.234375 C 2.484375 -3.234375 2.535156 -3.207031 2.578125 -3.15625 C 2.628906 -3.113281 2.65625 -3.050781 2.65625 -2.96875 C 2.65625 -2.84375 2.628906 -2.707031 2.578125 -2.5625 C 2.523438 -2.425781 2.429688 -2.359375 2.296875 -2.359375 C 2.234375 -2.359375 2.191406 -2.375 2.171875 -2.40625 C 2.148438 -2.445312 2.128906 -2.5 2.109375 -2.5625 C 2.097656 -2.613281 2.085938 -2.648438 2.078125 -2.671875 C 2.066406 -2.691406 2.046875 -2.703125 2.015625 -2.703125 C 1.929688 -2.703125 1.816406 -2.570312 1.671875 -2.3125 C 1.523438 -2.0625 1.378906 -1.769531 1.234375 -1.4375 C 1.097656 -1.113281 1.003906 -0.867188 0.953125 -0.703125 L 0.765625 0 L 0.234375 0 L 0.796875 -2.28125 C 0.804688 -2.289062 0.820312 -2.347656 0.84375 -2.453125 C 0.863281 -2.554688 0.875 -2.644531 0.875 -2.71875 C 0.875 -2.800781 0.851562 -2.851562 0.8125 -2.875 C 0.769531 -2.894531 0.710938 -2.90625 0.640625 -2.90625 C 0.585938 -2.90625 0.539062 -2.898438 0.5 -2.890625 C 0.457031 -2.890625 0.425781 -2.890625 0.40625 -2.890625 L 0.4375 -3.015625 L 1.375 -3.234375 Z M 1.5 -3.234375 "/></g></g></g></g><g fill="#fa6f45" fill-opacity="1"><g transform="translate(2.349584, 7.385304)"><g><path d="M 2.203125 -3.234375 C 2.328125 -3.234375 2.441406 -3.1875 2.546875 -3.09375 C 2.648438 -3.007812 2.710938 -2.890625 2.734375 -2.734375 L 2.75 -2.734375 L 2.859375 -3.15625 L 3.421875 -3.234375 L 2.6875 -0.671875 C 2.6875 -0.660156 2.675781 -0.625 2.65625 -0.5625 C 2.632812 -0.507812 2.625 -0.453125 2.625 -0.390625 C 2.625 -0.347656 2.632812 -0.316406 2.65625 -0.296875 C 2.675781 -0.273438 2.695312 -0.265625 2.71875 -0.265625 C 2.78125 -0.265625 2.859375 -0.304688 2.953125 -0.390625 C 3.046875 -0.472656 3.132812 -0.59375 3.21875 -0.75 L 3.328125 -0.671875 C 3.203125 -0.441406 3.039062 -0.257812 2.84375 -0.125 C 2.644531 0.0078125 2.472656 0.078125 2.328125 0.078125 C 2.242188 0.078125 2.175781 0.0507812 2.125 0 C 2.082031 -0.0625 2.0625 -0.140625 2.0625 -0.234375 C 2.0625 -0.296875 2.070312 -0.394531 2.09375 -0.53125 C 2.125 -0.664062 2.171875 -0.804688 2.234375 -0.953125 L 2.21875 -0.96875 C 1.6875 -0.269531 1.207031 0.078125 0.78125 0.078125 C 0.59375 0.078125 0.441406 0 0.328125 -0.15625 C 0.222656 -0.320312 0.171875 -0.507812 0.171875 -0.71875 C 0.171875 -1.082031 0.273438 -1.460938 0.484375 -1.859375 C 0.703125 -2.253906 0.96875 -2.582031 1.28125 -2.84375 C 1.601562 -3.101562 1.910156 -3.234375 2.203125 -3.234375 Z M 0.734375 -0.859375 C 0.734375 -0.671875 0.773438 -0.535156 0.859375 -0.453125 C 0.941406 -0.367188 1.039062 -0.328125 1.15625 -0.328125 C 1.300781 -0.328125 1.457031 -0.390625 1.625 -0.515625 C 1.800781 -0.648438 1.957031 -0.816406 2.09375 -1.015625 C 2.238281 -1.222656 2.347656 -1.4375 2.421875 -1.65625 C 2.492188 -1.863281 2.546875 -2.03125 2.578125 -2.15625 C 2.609375 -2.289062 2.625 -2.425781 2.625 -2.5625 C 2.625 -2.738281 2.582031 -2.867188 2.5 -2.953125 C 2.414062 -3.046875 2.316406 -3.09375 2.203125 -3.09375 C 1.984375 -3.09375 1.757812 -2.957031 1.53125 -2.6875 C 1.300781 -2.414062 1.109375 -2.097656 0.953125 -1.734375 C 0.804688 -1.367188 0.734375 -1.078125 0.734375 -0.859375 Z M 0.734375 -0.859375 "/></g></g></g><g fill="#fa6f45" fill-opacity="1"><g transform="translate(5.383579, 7.385304)"><g><path d="M 2.078125 -5.0625 L 1.078125 -1.59375 L 1.09375 -1.578125 C 1.40625 -2.085938 1.710938 -2.488281 2.015625 -2.78125 C 2.316406 -3.082031 2.59375 -3.234375 2.84375 -3.234375 C 2.925781 -3.234375 3.007812 -3.191406 3.09375 -3.109375 C 3.175781 -3.035156 3.21875 -2.929688 3.21875 -2.796875 C 3.21875 -2.648438 3.1875 -2.460938 3.125 -2.234375 L 2.703125 -0.796875 C 2.671875 -0.691406 2.644531 -0.609375 2.625 -0.546875 C 2.613281 -0.484375 2.609375 -0.429688 2.609375 -0.390625 C 2.609375 -0.347656 2.613281 -0.316406 2.625 -0.296875 C 2.644531 -0.273438 2.664062 -0.265625 2.6875 -0.265625 C 2.738281 -0.265625 2.816406 -0.320312 2.921875 -0.4375 C 3.035156 -0.550781 3.128906 -0.660156 3.203125 -0.765625 L 3.3125 -0.6875 C 3.1875 -0.5 3.03125 -0.320312 2.84375 -0.15625 C 2.65625 0 2.484375 0.078125 2.328125 0.078125 C 2.242188 0.078125 2.175781 0.0507812 2.125 0 C 2.082031 -0.0625 2.0625 -0.132812 2.0625 -0.21875 C 2.0625 -0.320312 2.085938 -0.460938 2.140625 -0.640625 L 2.5625 -2.125 C 2.625 -2.351562 2.65625 -2.507812 2.65625 -2.59375 C 2.65625 -2.664062 2.640625 -2.722656 2.609375 -2.765625 C 2.578125 -2.804688 2.535156 -2.828125 2.484375 -2.828125 C 2.335938 -2.828125 2.148438 -2.710938 1.921875 -2.484375 C 1.703125 -2.253906 1.46875 -1.953125 1.21875 -1.578125 C 1.0625 -1.316406 0.9375 -1.035156 0.84375 -0.734375 L 0.625 0 L 0.09375 0 L 1.203125 -3.828125 C 1.265625 -4.054688 1.3125 -4.222656 1.34375 -4.328125 C 1.375 -4.429688 1.390625 -4.515625 1.390625 -4.578125 C 1.390625 -4.660156 1.359375 -4.710938 1.296875 -4.734375 C 1.234375 -4.753906 1.128906 -4.765625 0.984375 -4.765625 L 0.984375 -4.890625 L 1.953125 -5.0625 Z M 2.078125 -5.0625 "/></g></g></g><g fill="#fa6f45" fill-opacity="1"><g transform="translate(8.417573, 7.385304)"><g><path d="M 2.203125 -3.234375 C 2.328125 -3.234375 2.441406 -3.1875 2.546875 -3.09375 C 2.648438 -3.007812 2.710938 -2.890625 2.734375 -2.734375 L 2.75 -2.734375 L 2.859375 -3.15625 L 3.421875 -3.234375 L 2.6875 -0.671875 C 2.6875 -0.660156 2.675781 -0.625 2.65625 -0.5625 C 2.632812 -0.507812 2.625 -0.453125 2.625 -0.390625 C 2.625 -0.347656 2.632812 -0.316406 2.65625 -0.296875 C 2.675781 -0.273438 2.695312 -0.265625 2.71875 -0.265625 C 2.78125 -0.265625 2.859375 -0.304688 2.953125 -0.390625 C 3.046875 -0.472656 3.132812 -0.59375 3.21875 -0.75 L 3.328125 -0.671875 C 3.203125 -0.441406 3.039062 -0.257812 2.84375 -0.125 C 2.644531 0.0078125 2.472656 0.078125 2.328125 0.078125 C 2.242188 0.078125 2.175781 0.0507812 2.125 0 C 2.082031 -0.0625 2.0625 -0.140625 2.0625 -0.234375 C 2.0625 -0.296875 2.070312 -0.394531 2.09375 -0.53125 C 2.125 -0.664062 2.171875 -0.804688 2.234375 -0.953125 L 2.21875 -0.96875 C 1.6875 -0.269531 1.207031 0.078125 0.78125 0.078125 C 0.59375 0.078125 0.441406 0 0.328125 -0.15625 C 0.222656 -0.320312 0.171875 -0.507812 0.171875 -0.71875 C 0.171875 -1.082031 0.273438 -1.460938 0.484375 -1.859375 C 0.703125 -2.253906 0.96875 -2.582031 1.28125 -2.84375 C 1.601562 -3.101562 1.910156 -3.234375 2.203125 -3.234375 Z M 0.734375 -0.859375 C 0.734375 -0.671875 0.773438 -0.535156 0.859375 -0.453125 C 0.941406 -0.367188 1.039062 -0.328125 1.15625 -0.328125 C 1.300781 -0.328125 1.457031 -0.390625 1.625 -0.515625 C 1.800781 -0.648438 1.957031 -0.816406 2.09375 -1.015625 C 2.238281 -1.222656 2.347656 -1.4375 2.421875 -1.65625 C 2.492188 -1.863281 2.546875 -2.03125 2.578125 -2.15625 C 2.609375 -2.289062 2.625 -2.425781 2.625 -2.5625 C 2.625 -2.738281 2.582031 -2.867188 2.5 -2.953125 C 2.414062 -3.046875 2.316406 -3.09375 2.203125 -3.09375 C 1.984375 -3.09375 1.757812 -2.957031 1.53125 -2.6875 C 1.300781 -2.414062 1.109375 -2.097656 0.953125 -1.734375 C 0.804688 -1.367188 0.734375 -1.078125 0.734375 -0.859375 Z M 0.734375 -0.859375 "/></g></g></g></g></g></svg>