<svg xmlns="http://www.w3.org/2000/svg" width="1383" height="189" fill="none"><path fill="silver" d="M60.58 47.433c-1.736-2.604-3.255-5.642-4.557-9.114a49.25 49.25 0 0 1-2.604-11.284c-.434-3.906-.434-7.957 0-12.152A44.877 44.877 0 0 1 56.89 2.731L39.097 14.666c-3.617 3.038-5.787 6.22-6.51 9.548-.724 3.183-1.085 6.004-1.085 8.463 0 5.497 1.519 10.633 4.557 15.407 3.038 4.63 7.016 9.042 11.935 13.237 5.063 4.195 10.777 8.174 17.143 11.935a9953.81 9953.81 0 0 0 19.53 11.067 626.233 626.233 0 0 1 19.53 11.067c6.365 3.761 12.007 7.74 16.926 11.935 5.063 4.195 9.114 8.68 12.152 13.454 3.038 4.629 4.557 9.765 4.557 15.407 0 5.497-1.519 10.633-4.557 15.407-3.038 4.774-7.017 9.114-11.935 13.02-4.919 3.906-10.561 7.378-16.926 10.416a134.52 134.52 0 0 1-19.096 7.595c-6.366 2.025-12.586 3.544-18.662 4.557-5.932 1.157-11.14 1.736-15.624 1.736-8.246 0-16.203-1.881-23.87-5.642-7.523-3.617-13.599-8.463-18.228-14.539-4.485-5.931-6.944-12.586-7.378-19.964-.434-7.523 2.459-15.045 8.68-22.568L56.24 101.9l1.519 1.736c-8.68 4.195-15.046 9.114-19.096 14.756-3.906 5.497-5.86 12.007-5.86 19.53 0 6.076 1.592 11.573 4.775 16.492 3.182 4.774 7.305 8.897 12.369 12.369 5.063 3.472 10.633 6.076 16.709 7.812 6.22 1.881 12.224 2.821 18.01 2.821 4.051 0 7.885-.506 11.502-1.519 3.761-.868 7.016-2.315 9.765-4.34 2.748-1.881 4.918-4.34 6.51-7.378 1.591-3.038 2.387-6.655 2.387-10.85 0-9.259-2.604-16.926-7.812-23.002-5.064-6.076-11.501-11.356-19.313-15.841-7.812-4.629-16.203-8.825-25.172-12.586-8.97-3.906-17.36-8.246-25.172-13.02-7.812-4.774-14.322-10.416-19.53-16.926-5.064-6.51-7.595-14.756-7.595-24.738 0-4.919 1.808-9.62 5.425-14.105 3.616-4.63 7.956-8.897 13.02-12.803A161.431 161.431 0 0 1 44.305 9.241c5.497-3.327 9.982-6.148 13.454-8.463 5.497 12.007 11.428 20.977 17.794 26.908 6.51 5.931 12.73 8.897 18.662 8.897 5.063 0 9.548-2.242 13.454-6.727 3.906-4.63 6.582-11.573 8.029-20.832h1.519l-8.463 56.42c-4.485 0-9.042-.217-13.671-.651a69.135 69.135 0 0 1-13.237-2.604 52.216 52.216 0 0 1-11.935-5.425c-3.617-2.46-6.727-5.57-9.331-9.331Zm79.795-32.116h99.82v19.53h-36.456L203.956 167h-26.908V34.847h-36.673v-19.53Zm158.362 120.218h-35.371L258.375 167h-26.257l23.653-151.9H307.2L330.853 167h-27.125l-4.991-31.465Zm-3.038-20.615L281.16 21.393l-14.756 93.527h29.295Zm101.86-29.295c4.34 0 9.041.579 14.105 1.736a35.183 35.183 0 0 1 13.888 6.076c4.34 2.893 7.956 6.872 10.85 11.935 2.893 4.919 4.34 11.284 4.34 19.096 0 7.378-1.375 13.816-4.123 19.313-2.749 5.353-6.51 9.765-11.284 13.237-4.63 3.472-10.055 6.004-16.275 7.595-6.076 1.591-12.586 2.387-19.53 2.387h-47.74V15.1h43.834c6.944-.434 13.526-.072 19.747 1.085 6.22 1.157 11.645 3.255 16.275 6.293 4.774 2.893 8.535 6.727 11.284 11.501 2.893 4.774 4.34 10.633 4.34 17.577 0 6.655-1.302 12.152-3.906 16.492-2.46 4.34-5.642 7.812-9.548 10.416-3.762 2.46-8.029 4.195-12.803 5.208-4.63 1.013-9.114 1.519-13.454 1.519v.434Zm-11.935-9.765c7.233 0 13.164-1.736 17.794-5.208 4.774-3.472 7.161-9.042 7.161-16.709 0-7.233-2.387-12.297-7.161-15.19-4.63-2.893-10.561-4.268-17.794-4.123h-17.143v41.23h17.143Zm4.123 71.61c7.667.145 13.598-2.098 17.794-6.727 4.34-4.629 6.51-11.139 6.51-19.53 0-4.195-.796-7.884-2.387-11.067-1.592-3.183-3.762-5.859-6.51-8.029-2.604-2.315-5.642-3.978-9.114-4.991-3.328-1.157-6.8-1.736-10.416-1.736h-17.143v52.08h21.266ZM522.5 167h-72.044V15.1h27.993l-1.302 131.285h45.57L522.5 167Zm36.652-19.53h91.574V167H532.678V15.1h117.397v19.53h-90.706v46.655h90.706v19.53h-90.706l-.217 46.655Zm232.379-45.57c-4.485 5.931-6.872 11.067-7.161 15.407-.145 4.34.723 7.957 2.604 10.85 1.88 2.749 4.267 4.846 7.161 6.293 3.038 1.447 5.497 2.242 7.378 2.387 16.926.868 30.814-.289 41.664-3.472 10.994-3.183 19.674-7.45 26.04-12.803 6.365-5.497 10.705-11.718 13.02-18.662 2.314-6.944 3.255-13.743 2.821-20.398-.29-6.655-1.664-12.73-4.123-18.228-2.315-5.497-5.064-9.62-8.246-12.369-3.328-2.893-7.378-4.34-12.152-4.34-4.196 0-8.391 1.23-12.586 3.689-4.051 2.315-7.595 5.642-10.633 9.982l-1.085-.434 35.154-54.25c7.088 2.749 12.513 7.233 16.275 13.454 3.761 6.076 6.148 13.165 7.161 21.266 1.157 7.957 1.012 16.637-.434 26.04-1.302 9.403-3.545 18.807-6.727 28.21a157.076 157.076 0 0 1-12.152 27.125c-4.774 8.68-10.055 16.347-15.841 23.002-5.787 6.655-12.008 11.935-18.662 15.841-6.51 3.906-13.093 5.859-19.747 5.859-6.8 0-13.093-2.098-18.879-6.293-5.642-4.195-10.272-9.693-13.888-16.492-3.617-6.944-5.859-14.828-6.727-23.653-.868-8.969.217-18.228 3.255-27.776l4.991-15.841c-3.038 7.957-6.727 16.42-11.067 25.389-4.34 8.969-9.621 17.505-15.841 25.606-6.076 7.957-13.237 15.118-21.483 21.483-8.246 6.221-17.722 10.705-28.427 13.454l-23.87 6.076c-.434.723-.579 1.591-.434 2.604.289 1.013.506 1.953.651 2.821.289 1.013.361 1.953.217 2.821 0 .868-.434 1.447-1.302 1.736-1.592.434-2.821-.145-3.689-1.736-.868-1.591-.724-3.4.434-5.425l23.653-41.23 12.152-1.519a259.577 259.577 0 0 0 10.416-16.492 133.613 133.613 0 0 0 8.68-16.926c2.604-5.787 4.629-11.863 6.076-18.228 1.446-6.365 2.17-13.092 2.17-20.181 0-6.365-.868-11.863-2.604-16.492-1.736-4.774-4.123-8.752-7.161-11.935-2.894-3.183-6.366-5.57-10.416-7.161-3.906-1.591-8.174-2.387-12.803-2.387-4.63 0-9.331.796-14.105 2.387-4.774 1.447-9.548 3.761-14.322 6.944-4.774 3.183-8.753 7.016-11.935 11.501-3.183 4.34-5.425 8.897-6.727 13.671-1.158 4.774-1.447 9.548-.868 14.322.578 4.63 2.097 8.825 4.557 12.586 2.604 3.617 6.148 6.582 10.633 8.897 4.484 2.17 10.054 3.11 16.709 2.821 3.906-.145 7.956-1.374 12.152-3.689 4.195-2.315 8.246-5.208 12.152-8.68a104.178 104.178 0 0 0 10.85-11.718c3.327-4.195 6.076-8.246 8.246-12.152l1.302 1.302c-2.026 3.327-4.702 7.161-8.029 11.501a254.268 254.268 0 0 1-10.416 12.803 237.19 237.19 0 0 1-11.501 12.369c-3.906 3.906-7.523 7.233-10.85 9.982-6.076 4.919-12.948 7.378-20.615 7.378-3.472 0-6.872-.651-10.199-1.953-3.328-1.302-6.221-3.327-8.68-6.076-2.46-2.749-4.413-6.22-5.859-10.416-1.447-4.34-2.026-9.548-1.736-15.624.289-6.076 1.302-11.646 3.038-16.709 1.736-5.208 4.123-9.982 7.161-14.322 3.038-4.485 6.654-8.68 10.85-12.586 4.34-3.906 9.114-7.667 14.322-11.284 3.038-2.17 6.582-4.268 10.633-6.293a101.757 101.757 0 0 1 13.02-5.208 96.34 96.34 0 0 1 14.105-3.689c4.918-1.013 9.62-1.519 14.105-1.519 4.484 0 8.752.506 12.803 1.519 4.05 1.013 7.595 2.749 10.633 5.208 3.038 2.315 5.425 5.425 7.161 9.331 1.736 3.906 2.604 8.68 2.604 14.322 0 8.825-1.664 17.288-4.991 25.389-3.183 8.101-7.378 15.986-12.586 23.653-5.064 7.523-10.706 14.9-16.926 22.134a1152.334 1152.334 0 0 0-17.794 21.266c8.969-1.302 17.143-3.544 24.521-6.727 7.522-3.327 14.322-8.174 20.398-14.539 6.076-6.51 11.573-14.9 16.492-25.172 4.918-10.416 9.331-23.291 13.237-38.626l2.821-.217v.217l35.371-.868-45.57 59.892Zm111.734-9.982c0-11.573 1.736-22.062 5.208-31.465 3.617-9.403 8.608-17.432 14.973-24.087 6.51-6.8 14.25-12.007 23.219-15.624 9.114-3.761 19.241-5.642 30.38-5.642 10.995 0 20.977 1.88 29.945 5.642 9.12 3.617 16.85 8.825 23.22 15.624 6.37 6.655 11.28 14.684 14.76 24.087 3.61 9.403 5.42 19.892 5.42 31.465 0 11.429-1.81 21.917-5.42 31.465-3.48 9.403-8.39 17.505-14.76 24.304-6.37 6.655-14.1 11.863-23.22 15.624-8.968 3.617-18.95 5.425-29.945 5.425-11.139 0-21.266-1.808-30.38-5.425-8.969-3.761-16.709-8.969-23.219-15.624-6.365-6.799-11.356-14.901-14.973-24.304-3.472-9.548-5.208-20.036-5.208-31.465Zm22.134 0c0 7.957 1.23 15.262 3.689 21.917 2.46 6.655 5.932 12.369 10.416 17.143 4.485 4.629 9.91 8.246 16.275 10.85 6.366 2.604 13.454 3.906 21.266 3.906 7.668 0 14.612-1.302 20.832-3.906 6.363-2.604 11.793-6.221 16.273-10.85 4.49-4.774 7.96-10.488 10.42-17.143 2.46-6.655 3.69-13.96 3.69-21.917 0-8.101-1.23-15.407-3.69-21.917-2.46-6.655-5.93-12.297-10.42-16.926-4.48-4.774-9.91-8.463-16.273-11.067-6.22-2.604-13.164-3.906-20.832-3.906-7.812 0-14.9 1.302-21.266 3.906-6.365 2.604-11.79 6.293-16.275 11.067-4.484 4.63-7.956 10.271-10.416 16.926-2.459 6.51-3.689 13.816-3.689 21.917ZM1087.99 167h-26.47V15.1h43.83c6.8 0 13.31.579 19.53 1.736 6.23 1.157 11.72 3.255 16.5 6.293 4.77 2.893 8.53 6.872 11.28 11.935 2.89 4.919 4.34 11.212 4.34 18.879 0 11.429-3.25 20.543-9.76 27.342-6.37 6.655-15.05 10.995-26.04 13.02L1156.78 167h-27.12l-34.94-71.393h-6.51l-.22 71.393Zm17.36-92.008c3.62 0 6.95-.217 9.99-.651 3.03-.579 5.64-1.591 7.81-3.038 2.31-1.447 4.05-3.472 5.21-6.076 1.3-2.604 1.95-5.931 1.95-9.982 0-4.05-.65-7.378-1.95-9.982-1.16-2.604-2.9-4.557-5.21-5.859-2.17-1.447-4.78-2.387-7.81-2.821-3.04-.579-6.37-.868-9.99-.868h-17.14v39.277h17.14Zm91.46 15.407 41.88-75.299h26.69l-40.8 73.346h42.97L1230.22 167h-26.69l31.03-61.628h-37.54V167h-26.9V15.1h26.69v75.299Zm159.35 39.277c0-5.642-1.81-10.199-5.42-13.671-3.48-3.472-7.96-6.582-13.46-9.331-5.35-2.893-11.14-5.57-17.36-8.029-6.22-2.604-12.08-5.714-17.57-9.331-5.36-3.761-9.84-8.318-13.46-13.671-3.47-5.497-5.21-12.369-5.21-20.615 0-6.8 1.23-12.803 3.69-18.011 2.61-5.208 6.08-9.548 10.42-13.02 4.34-3.472 9.47-6.076 15.41-7.812 6.07-1.88 12.58-2.821 19.53-2.821 8.1 0 15.26 1.23 21.48 3.689 6.22 2.315 11.35 5.642 15.41 9.982 4.19 4.195 7.3 9.259 9.33 15.19 2.17 5.931 3.25 12.514 3.25 19.747h-26.69c0-3.183-.29-6.148-.87-8.897-.58-2.893-1.73-5.353-3.47-7.378-1.74-2.17-4.12-3.906-7.16-5.208-2.89-1.302-6.73-1.953-11.5-1.953-2.75 0-5.5.217-8.25.651-2.6.434-4.92 1.23-6.94 2.387-2.03 1.157-3.69 2.749-4.99 4.774-1.3 2.025-1.96 4.557-1.96 7.595 0 5.208 1.74 9.62 5.21 13.237 3.62 3.472 8.1 6.655 13.46 9.548a372.891 372.891 0 0 0 17.14 8.68c6.22 2.893 12.01 6.293 17.36 10.199a48.584 48.584 0 0 1 13.24 13.888c3.61 5.353 5.42 12.08 5.42 20.181 0 12.297-4.34 21.917-13.02 28.861-8.68 6.799-21.19 10.199-37.54 10.199-9.84 0-18.37-1.302-25.61-3.906-7.08-2.749-12.94-6.365-17.57-10.85-4.63-4.485-8.03-9.62-10.2-15.407-2.17-5.931-3.26-12.152-3.26-18.662h26.69c0 3.472.8 6.727 2.39 9.765 1.59 3.038 3.76 5.714 6.51 8.029 2.75 2.315 5.93 4.195 9.55 5.642 3.76 1.302 7.81 1.953 12.15 1.953 3.33 0 6.44-.217 9.33-.651 2.9-.434 5.43-1.23 7.6-2.387s3.83-2.749 4.99-4.774c1.3-2.025 1.95-4.629 1.95-7.812Z"/></svg>